<?xml version="1.0" standalone="no"?>
<!DOCTYPE svg PUBLIC "-//W3C//DTD SVG 20010904//EN"
 "http://www.w3.org/TR/2001/REC-SVG-20010904/DTD/svg10.dtd">
<svg version="1.0" xmlns="http://www.w3.org/2000/svg"
 width="1080.000000pt" height="1080.000000pt" viewBox="0 0 1080.000000 1080.000000"
 preserveAspectRatio="xMidYMid meet">

<defs>
  <linearGradient id="theme-gradient" x1="0%" y1="0%" x2="100%" y2="0%">
    <stop offset="0%" style="stop-color:#5d52d9; stop-opacity:1" />
    <stop offset="100%" style="stop-color:#4fc5eb; stop-opacity:1" />
  </linearGradient>
</defs>

<g transform="translate(0.000000,1080.000000) scale(0.100000,-0.100000)"
fill="url(#theme-gradient)" stroke="none">
<path d="M5070 9654 c-168 -35 -568 -118 -890 -183 -322 -66 -805 -166 -1075
-221 -269 -55 -569 -117 -665 -136 -168 -35 -203 -44 -166 -44 15 0 892 -99
1316 -149 91 -11 354 -41 585 -67 231 -26 421 -49 423 -50 2 -1 44 -308 93
-681 49 -373 103 -781 120 -908 16 -126 39 -295 49 -375 10 -80 42 -318 70
-530 28 -212 60 -450 70 -530 10 -80 33 -251 50 -380 17 -129 40 -300 50 -380
10 -80 33 -251 50 -380 17 -129 41 -314 54 -410 13 -96 59 -445 102 -775 l79
-600 5 1130 c3 622 7 1002 9 845 2 -157 7 -663 10 -1125 l6 -839 149 1134 c82
624 168 1284 192 1465 24 182 58 434 74 560 17 127 42 313 55 415 29 219 81
616 130 988 20 147 44 332 55 412 10 80 42 321 70 535 28 215 53 399 55 410 4
19 25 23 287 52 271 31 905 104 1373 158 406 47 656 75 667 75 6 0 9 2 7 5 -4
4 -639 136 -1324 275 -310 63 -1628 334 -1723 354 -40 9 -81 16 -90 15 -9 -1
-154 -30 -322 -65z"/>
<path d="M1043 5253 c5 -156 34 -462 43 -472 6 -6 833 123 839 131 1 2 -4 53
-11 113 -7 61 -16 174 -20 253 l-7 142 -425 0 -425 0 6 -167z m811 20 c4 -60
12 -157 18 -216 6 -59 8 -110 6 -112 -7 -7 -752 -125 -756 -120 -8 8 -32 246
-37 370 -3 72 -8 142 -10 158 l-4 27 388 0 388 0 7 -107z"/>
<path d="M8902 5233 c-7 -104 -17 -217 -22 -252 -6 -35 -9 -66 -6 -69 5 -5
229 -42 625 -103 154 -24 205 -29 211 -20 16 27 50 387 50 539 l0 92 -423 0
-423 0 -12 -187z"/>
<path d="M1500 4803 c-223 -36 -406 -66 -407 -66 -3 -3 45 -240 66 -327 22
-94 78 -291 84 -296 2 -2 30 5 63 15 32 11 213 70 402 131 188 61 342 113 342
115 0 3 -14 55 -31 117 -17 62 -43 171 -58 243 -19 93 -31 130 -41 132 -8 1
-197 -28 -420 -64z m415 -35 c4 -29 25 -124 47 -211 22 -87 38 -160 36 -161
-13 -12 -724 -234 -730 -228 -17 17 -138 527 -127 536 7 5 694 114 731 115
l36 1 7 -52z"/>
<path d="M8840 4753 c-12 -65 -38 -174 -56 -242 -19 -67 -34 -127 -34 -131 0
-4 8 -11 17 -14 52 -20 785 -257 787 -254 15 21 90 311 125 485 l29 138 -72
12 c-69 13 -762 123 -769 123 -2 0 -14 -53 -27 -117z"/>
<path d="M8700 4247 c-18 -51 -61 -157 -96 -236 -36 -80 -61 -148 -57 -152 10
-9 712 -367 734 -374 12 -4 30 24 76 122 74 156 187 454 176 464 -4 4 -168 59
-363 123 -195 63 -374 122 -396 130 l-42 14 -32 -91z"/>
<path d="M1705 4219 c-181 -60 -356 -116 -387 -125 -32 -9 -58 -22 -58 -30 0
-35 201 -524 234 -569 12 -17 42 -3 382 170 203 103 372 191 377 194 4 4 -15
54 -41 112 -27 57 -71 161 -97 232 -35 90 -53 127 -64 126 -9 0 -164 -50 -346
-110z m374 -32 c18 -50 55 -140 81 -200 26 -59 45 -109 41 -111 -3 -2 -158
-81 -344 -176 l-337 -172 -49 104 c-50 108 -145 344 -156 390 l-7 26 314 102
c172 55 329 107 348 114 68 27 72 24 109 -77z"/>
<path d="M2195 3787 c-44 -24 -210 -109 -370 -191 -159 -81 -293 -150 -297
-154 -3 -4 25 -63 64 -132 86 -152 271 -436 276 -421 2 6 155 121 341 256
l338 246 -73 110 c-40 60 -100 159 -134 219 -34 61 -63 110 -63 110 -1 -1 -38
-20 -82 -43z m124 -109 c30 -51 81 -135 114 -186 33 -51 58 -94 56 -96 -2 -1
-137 -99 -299 -216 -162 -117 -301 -218 -308 -224 -17 -12 -22 -6 -129 163
-95 149 -175 291 -171 303 4 10 656 346 673 347 6 1 34 -41 64 -91z"/>
<path d="M8451 3707 c-36 -61 -95 -158 -132 -214 l-68 -102 339 -247 c186
-135 342 -247 347 -247 20 -2 314 472 329 530 4 15 -57 50 -364 206 -203 103
-373 187 -378 187 -5 0 -38 -51 -73 -113z"/>
<path d="M2223 3109 l-343 -251 74 -96 c80 -104 333 -392 344 -392 4 0 142
135 306 299 l299 299 -68 74 c-37 40 -100 159 -134 219 -34 61 -63 110 -63
110 -1 -1 -38 -20 -82 -43z"/>
</g>
</svg>